<svg
  id="visual"
  viewBox="0 0 960 540"
  width="960"
  height="540"
  xmlns="http://www.w3.org/2000/svg"
  xmlns:xlink="http://www.w3.org/1999/xlink"
  version="1.1"
>
  <path
    d="M0 274L16 269.5C32 265 64 256 96 256.7C128 257.3 160 267.7 192 275.2C224 282.7 256 287.3 288 284.2C320 281 352 270 384 258.2C416 246.3 448 233.7 480 214.2C512 194.7 544 168.3 576 176.8C608 185.3 640 228.7 672 250.2C704 271.7 736 271.3 768 251.5C800 231.7 832 192.3 864 181.3C896 170.3 928 187.7 944 196.3L960 205L960 0L944 0C928 0 896 0 864 0C832 0 800 0 768 0C736 0 704 0 672 0C640 0 608 0 576 0C544 0 512 0 480 0C448 0 416 0 384 0C352 0 320 0 288 0C256 0 224 0 192 0C160 0 128 0 96 0C64 0 32 0 16 0L0 0Z"
    fill="#91d7e3"
  ></path>
  <path
    d="M0 129L16 127.3C32 125.7 64 122.3 96 135.8C128 149.3 160 179.7 192 198C224 216.3 256 222.7 288 230C320 237.3 352 245.7 384 228.5C416 211.3 448 168.7 480 164.7C512 160.7 544 195.3 576 212.5C608 229.7 640 229.3 672 218.8C704 208.3 736 187.7 768 185.3C800 183 832 199 864 207.3C896 215.7 928 216.3 944 216.7L960 217L960 0L944 0C928 0 896 0 864 0C832 0 800 0 768 0C736 0 704 0 672 0C640 0 608 0 576 0C544 0 512 0 480 0C448 0 416 0 384 0C352 0 320 0 288 0C256 0 224 0 192 0C160 0 128 0 96 0C64 0 32 0 16 0L0 0Z"
    fill="#85d2e8"
  ></path>
  <path
    d="M0 182L16 178.2C32 174.3 64 166.7 96 169C128 171.3 160 183.7 192 176.5C224 169.3 256 142.7 288 139.3C320 136 352 156 384 161.5C416 167 448 158 480 162C512 166 544 183 576 192.3C608 201.7 640 203.3 672 204.7C704 206 736 207 768 196.5C800 186 832 164 864 146.3C896 128.7 928 115.3 944 108.7L960 102L960 0L944 0C928 0 896 0 864 0C832 0 800 0 768 0C736 0 704 0 672 0C640 0 608 0 576 0C544 0 512 0 480 0C448 0 416 0 384 0C352 0 320 0 288 0C256 0 224 0 192 0C160 0 128 0 96 0C64 0 32 0 16 0L0 0Z"
    fill="#7ccced"
  ></path>
  <path
    d="M0 150L16 140C32 130 64 110 96 112.8C128 115.7 160 141.3 192 150.7C224 160 256 153 288 144.7C320 136.3 352 126.7 384 117.5C416 108.3 448 99.7 480 104.7C512 109.7 544 128.3 576 130.2C608 132 640 117 672 113.3C704 109.7 736 117.3 768 117.3C800 117.3 832 109.7 864 118.2C896 126.7 928 151.3 944 163.7L960 176L960 0L944 0C928 0 896 0 864 0C832 0 800 0 768 0C736 0 704 0 672 0C640 0 608 0 576 0C544 0 512 0 480 0C448 0 416 0 384 0C352 0 320 0 288 0C256 0 224 0 192 0C160 0 128 0 96 0C64 0 32 0 16 0L0 0Z"
    fill="#78c5f1"
  ></path>
  <path
    d="M0 146L16 137.3C32 128.7 64 111.3 96 102.5C128 93.7 160 93.3 192 95.3C224 97.3 256 101.7 288 99.8C320 98 352 90 384 96.2C416 102.3 448 122.7 480 123.5C512 124.3 544 105.7 576 104.2C608 102.7 640 118.3 672 123.2C704 128 736 122 768 115.3C800 108.7 832 101.3 864 99.2C896 97 928 100 944 101.5L960 103L960 0L944 0C928 0 896 0 864 0C832 0 800 0 768 0C736 0 704 0 672 0C640 0 608 0 576 0C544 0 512 0 480 0C448 0 416 0 384 0C352 0 320 0 288 0C256 0 224 0 192 0C160 0 128 0 96 0C64 0 32 0 16 0L0 0Z"
    fill="#79bef4"
  ></path>
  <path
    d="M0 37L16 38.3C32 39.7 64 42.3 96 49.7C128 57 160 69 192 76.3C224 83.7 256 86.3 288 84.8C320 83.3 352 77.7 384 80.3C416 83 448 94 480 94C512 94 544 83 576 75.5C608 68 640 64 672 67.3C704 70.7 736 81.3 768 86.8C800 92.3 832 92.7 864 91.5C896 90.3 928 87.7 944 86.3L960 85L960 0L944 0C928 0 896 0 864 0C832 0 800 0 768 0C736 0 704 0 672 0C640 0 608 0 576 0C544 0 512 0 480 0C448 0 416 0 384 0C352 0 320 0 288 0C256 0 224 0 192 0C160 0 128 0 96 0C64 0 32 0 16 0L0 0Z"
    fill="#7fb6f5"
  ></path>
  <path
    d="M0 32L16 30.8C32 29.7 64 27.3 96 29.7C128 32 160 39 192 39.2C224 39.3 256 32.7 288 36.5C320 40.3 352 54.7 384 59.8C416 65 448 61 480 57.5C512 54 544 51 576 43.2C608 35.3 640 22.7 672 25C704 27.3 736 44.7 768 49.7C800 54.7 832 47.3 864 48.8C896 50.3 928 60.7 944 65.8L960 71L960 0L944 0C928 0 896 0 864 0C832 0 800 0 768 0C736 0 704 0 672 0C640 0 608 0 576 0C544 0 512 0 480 0C448 0 416 0 384 0C352 0 320 0 288 0C256 0 224 0 192 0C160 0 128 0 96 0C64 0 32 0 16 0L0 0Z"
    fill="#8aadf4"
  ></path>
</svg>
