<svg
  id="visual"
  viewBox="0 0 600 900"
  width="600"
  height="900"
  xmlns="http://www.w3.org/2000/svg"
  xmlns:xlink="http://www.w3.org/1999/xlink"
  version="1.1"
>
  <path
    d="M0 490L20 501.2C40 512.3 80 534.7 120 533C160 531.3 200 505.7 240 497.2C280 488.7 320 497.3 360 508.7C400 520 440 534 480 535.8C520 537.7 560 527.3 580 522.2L600 517L600 0L580 0C560 0 520 0 480 0C440 0 400 0 360 0C320 0 280 0 240 0C200 0 160 0 120 0C80 0 40 0 20 0L0 0Z"
    fill="#eed49f"
  ></path>
  <path
    d="M0 452L20 437.8C40 423.7 80 395.3 120 400.5C160 405.7 200 444.3 240 465.2C280 486 320 489 360 475.2C400 461.3 440 430.7 480 417.5C520 404.3 560 408.7 580 410.8L600 413L600 0L580 0C560 0 520 0 480 0C440 0 400 0 360 0C320 0 280 0 240 0C200 0 160 0 120 0C80 0 40 0 20 0L0 0Z"
    fill="#f1c796"
  ></path>
  <path
    d="M0 387L20 385C40 383 80 379 120 366C160 353 200 331 240 317.2C280 303.3 320 297.7 360 300.7C400 303.7 440 315.3 480 327.3C520 339.3 560 351.7 580 357.8L600 364L600 0L580 0C560 0 520 0 480 0C440 0 400 0 360 0C320 0 280 0 240 0C200 0 160 0 120 0C80 0 40 0 20 0L0 0Z"
    fill="#f4ba8f"
  ></path>
  <path
    d="M0 330L20 330.3C40 330.7 80 331.3 120 334.7C160 338 200 344 240 339.2C280 334.3 320 318.7 360 313.2C400 307.7 440 312.3 480 306.8C520 301.3 560 285.7 580 277.8L600 270L600 0L580 0C560 0 520 0 480 0C440 0 400 0 360 0C320 0 280 0 240 0C200 0 160 0 120 0C80 0 40 0 20 0L0 0Z"
    fill="#f5ad8c"
  ></path>
  <path
    d="M0 274L20 265.7C40 257.3 80 240.7 120 228.2C160 215.7 200 207.3 240 199.5C280 191.7 320 184.3 360 182C400 179.7 440 182.3 480 186C520 189.7 560 194.3 580 196.7L600 199L600 0L580 0C560 0 520 0 480 0C440 0 400 0 360 0C320 0 280 0 240 0C200 0 160 0 120 0C80 0 40 0 20 0L0 0Z"
    fill="#f5a08c"
  ></path>
  <path
    d="M0 161L20 158.5C40 156 80 151 120 147.3C160 143.7 200 141.3 240 148.3C280 155.3 320 171.7 360 169.7C400 167.7 440 147.3 480 147C520 146.7 560 166.3 580 176.2L600 186L600 0L580 0C560 0 520 0 480 0C440 0 400 0 360 0C320 0 280 0 240 0C200 0 160 0 120 0C80 0 40 0 20 0L0 0Z"
    fill="#f29390"
  ></path>
  <path
    d="M0 92L20 89.5C40 87 80 82 120 76.3C160 70.7 200 64.3 240 60.8C280 57.3 320 56.7 360 58.8C400 61 440 66 480 77.3C520 88.7 560 106.3 580 115.2L600 124L600 0L580 0C560 0 520 0 480 0C440 0 400 0 360 0C320 0 280 0 240 0C200 0 160 0 120 0C80 0 40 0 20 0L0 0Z"
    fill="#ed8796"
  ></path>
</svg>
